<mxfile host="app.diagrams.net" modified="2023-10-19T15:00:20.758Z" agent="Mozilla/5.0 (Windows NT 10.0; Win64; x64) AppleWebKit/537.36 (KHTML, like Gecko) Chrome/118.0.0.0 Safari/537.36 Edg/118.0.2088.46" etag="PKmA97e69SsnCZuBt3DK" version="22.0.5" type="github">
  <diagram id="C5RBs43oDa-KdzZeNtuy" name="Page-1">
    <mxGraphModel dx="1465" dy="1543" grid="1" gridSize="10" guides="1" tooltips="1" connect="1" arrows="1" fold="1" page="1" pageScale="1" pageWidth="827" pageHeight="1169" math="0" shadow="0">
      <root>
        <mxCell id="WIyWlLk6GJQsqaUBKTNV-0" />
        <mxCell id="WIyWlLk6GJQsqaUBKTNV-1" parent="WIyWlLk6GJQsqaUBKTNV-0" />
        <mxCell id="yv-5bSZ3Bk_qHTzuzEl7-0" value=":&lt;font color=&quot;#ea6b66&quot;&gt;Login&lt;/font&gt;" style="shape=umlLifeline;perimeter=lifelinePerimeter;whiteSpace=wrap;html=1;container=1;dropTarget=0;collapsible=0;recursiveResize=0;outlineConnect=0;portConstraint=eastwest;newEdgeStyle={&quot;curved&quot;:0,&quot;rounded&quot;:0};sketch=1;hachureGap=4;jiggle=2;curveFitting=1;fontFamily=Architects Daughter;fontSource=https%3A%2F%2Ffonts.googleapis.com%2Fcss%3Ffamily%3DArchitects%2BDaughter;fontSize=20;" vertex="1" parent="WIyWlLk6GJQsqaUBKTNV-1">
          <mxGeometry x="33" y="-84" width="100" height="300" as="geometry" />
        </mxCell>
        <mxCell id="yv-5bSZ3Bk_qHTzuzEl7-1" value="" style="html=1;points=[[0,0,0,0,5],[0,1,0,0,-5],[1,0,0,0,5],[1,1,0,0,-5]];perimeter=orthogonalPerimeter;outlineConnect=0;targetShapes=umlLifeline;portConstraint=eastwest;newEdgeStyle={&quot;curved&quot;:0,&quot;rounded&quot;:0};sketch=1;hachureGap=4;jiggle=2;curveFitting=1;fontFamily=Architects Daughter;fontSource=https%3A%2F%2Ffonts.googleapis.com%2Fcss%3Ffamily%3DArchitects%2BDaughter;fontSize=20;" vertex="1" parent="yv-5bSZ3Bk_qHTzuzEl7-0">
          <mxGeometry x="45" y="62" width="10" height="50" as="geometry" />
        </mxCell>
        <mxCell id="yv-5bSZ3Bk_qHTzuzEl7-2" value="" style="html=1;points=[[0,0,0,0,5],[0,1,0,0,-5],[1,0,0,0,5],[1,1,0,0,-5]];perimeter=orthogonalPerimeter;outlineConnect=0;targetShapes=umlLifeline;portConstraint=eastwest;newEdgeStyle={&quot;curved&quot;:0,&quot;rounded&quot;:0};sketch=1;hachureGap=4;jiggle=2;curveFitting=1;fontFamily=Architects Daughter;fontSource=https%3A%2F%2Ffonts.googleapis.com%2Fcss%3Ffamily%3DArchitects%2BDaughter;fontSize=20;" vertex="1" parent="yv-5bSZ3Bk_qHTzuzEl7-0">
          <mxGeometry x="48" y="124" width="10" height="41" as="geometry" />
        </mxCell>
        <mxCell id="yv-5bSZ3Bk_qHTzuzEl7-3" value="" style="endArrow=open;endFill=1;endSize=12;html=1;rounded=0;sketch=1;hachureGap=4;jiggle=2;curveFitting=1;fontFamily=Architects Daughter;fontSource=https%3A%2F%2Ffonts.googleapis.com%2Fcss%3Ffamily%3DArchitects%2BDaughter;fontSize=16;curved=1;" edge="1" parent="yv-5bSZ3Bk_qHTzuzEl7-0" source="yv-5bSZ3Bk_qHTzuzEl7-2" target="yv-5bSZ3Bk_qHTzuzEl7-0">
          <mxGeometry width="160" relative="1" as="geometry">
            <mxPoint x="276" y="140" as="sourcePoint" />
            <mxPoint x="436" y="140" as="targetPoint" />
            <Array as="points" />
          </mxGeometry>
        </mxCell>
        <mxCell id="yv-5bSZ3Bk_qHTzuzEl7-4" value="&lt;font color=&quot;#ea6b66&quot; style=&quot;font-size: 12px;&quot;&gt;:UserLoginCheck&lt;/font&gt;" style="shape=umlLifeline;perimeter=lifelinePerimeter;whiteSpace=wrap;html=1;container=1;dropTarget=0;collapsible=0;recursiveResize=0;outlineConnect=0;portConstraint=eastwest;newEdgeStyle={&quot;curved&quot;:0,&quot;rounded&quot;:0};sketch=1;hachureGap=4;jiggle=2;curveFitting=1;fontFamily=Architects Daughter;fontSource=https%3A%2F%2Ffonts.googleapis.com%2Fcss%3Ffamily%3DArchitects%2BDaughter;fontSize=20;" vertex="1" parent="WIyWlLk6GJQsqaUBKTNV-1">
          <mxGeometry x="208" y="-84" width="100" height="300" as="geometry" />
        </mxCell>
        <mxCell id="yv-5bSZ3Bk_qHTzuzEl7-5" value="" style="html=1;points=[[0,0,0,0,5],[0,1,0,0,-5],[1,0,0,0,5],[1,1,0,0,-5]];perimeter=orthogonalPerimeter;outlineConnect=0;targetShapes=umlLifeline;portConstraint=eastwest;newEdgeStyle={&quot;curved&quot;:0,&quot;rounded&quot;:0};sketch=1;hachureGap=4;jiggle=2;curveFitting=1;fontFamily=Architects Daughter;fontSource=https%3A%2F%2Ffonts.googleapis.com%2Fcss%3Ffamily%3DArchitects%2BDaughter;fontSize=20;" vertex="1" parent="yv-5bSZ3Bk_qHTzuzEl7-4">
          <mxGeometry x="45" y="69" width="10" height="39" as="geometry" />
        </mxCell>
        <mxCell id="yv-5bSZ3Bk_qHTzuzEl7-6" value="&lt;font color=&quot;#ea6b66&quot; style=&quot;font-size: 16px;&quot;&gt;:userService&lt;/font&gt;" style="shape=umlLifeline;perimeter=lifelinePerimeter;whiteSpace=wrap;html=1;container=1;dropTarget=0;collapsible=0;recursiveResize=0;outlineConnect=0;portConstraint=eastwest;newEdgeStyle={&quot;curved&quot;:0,&quot;rounded&quot;:0};sketch=1;hachureGap=4;jiggle=2;curveFitting=1;fontFamily=Architects Daughter;fontSource=https%3A%2F%2Ffonts.googleapis.com%2Fcss%3Ffamily%3DArchitects%2BDaughter;fontSize=20;" vertex="1" parent="WIyWlLk6GJQsqaUBKTNV-1">
          <mxGeometry x="374" y="-84" width="100" height="300" as="geometry" />
        </mxCell>
        <mxCell id="yv-5bSZ3Bk_qHTzuzEl7-7" value="" style="html=1;points=[[0,0,0,0,5],[0,1,0,0,-5],[1,0,0,0,5],[1,1,0,0,-5]];perimeter=orthogonalPerimeter;outlineConnect=0;targetShapes=umlLifeline;portConstraint=eastwest;newEdgeStyle={&quot;curved&quot;:0,&quot;rounded&quot;:0};sketch=1;hachureGap=4;jiggle=2;curveFitting=1;fontFamily=Architects Daughter;fontSource=https%3A%2F%2Ffonts.googleapis.com%2Fcss%3Ffamily%3DArchitects%2BDaughter;fontSize=20;" vertex="1" parent="yv-5bSZ3Bk_qHTzuzEl7-6">
          <mxGeometry x="45" y="61" width="10" height="101" as="geometry" />
        </mxCell>
        <mxCell id="yv-5bSZ3Bk_qHTzuzEl7-8" value="" style="endArrow=open;endFill=1;endSize=12;html=1;rounded=0;sketch=1;hachureGap=4;jiggle=2;curveFitting=1;fontFamily=Architects Daughter;fontSource=https%3A%2F%2Ffonts.googleapis.com%2Fcss%3Ffamily%3DArchitects%2BDaughter;fontSize=16;curved=1;" edge="1" parent="WIyWlLk6GJQsqaUBKTNV-1" source="yv-5bSZ3Bk_qHTzuzEl7-13" target="yv-5bSZ3Bk_qHTzuzEl7-6">
          <mxGeometry width="160" relative="1" as="geometry">
            <mxPoint x="258" y="8" as="sourcePoint" />
            <mxPoint x="424" y="8" as="targetPoint" />
            <Array as="points">
              <mxPoint x="341" y="-2" />
            </Array>
          </mxGeometry>
        </mxCell>
        <mxCell id="yv-5bSZ3Bk_qHTzuzEl7-9" value="" style="endArrow=open;endFill=1;endSize=12;html=1;rounded=0;sketch=1;hachureGap=4;jiggle=2;curveFitting=1;fontFamily=Architects Daughter;fontSource=https%3A%2F%2Ffonts.googleapis.com%2Fcss%3Ffamily%3DArchitects%2BDaughter;fontSize=16;curved=1;entryX=0.495;entryY=0.35;entryDx=0;entryDy=0;entryPerimeter=0;" edge="1" parent="WIyWlLk6GJQsqaUBKTNV-1" source="yv-5bSZ3Bk_qHTzuzEl7-11">
          <mxGeometry width="160" relative="1" as="geometry">
            <mxPoint x="222" y="61" as="sourcePoint" />
            <mxPoint x="257.5" y="-3.0000000000001137" as="targetPoint" />
            <Array as="points">
              <mxPoint x="173" y="-4" />
            </Array>
          </mxGeometry>
        </mxCell>
        <mxCell id="yv-5bSZ3Bk_qHTzuzEl7-10" value="" style="endArrow=open;endFill=1;endSize=12;html=1;rounded=0;sketch=1;hachureGap=4;jiggle=2;curveFitting=1;fontFamily=Architects Daughter;fontSource=https%3A%2F%2Ffonts.googleapis.com%2Fcss%3Ffamily%3DArchitects%2BDaughter;fontSize=16;curved=1;entryX=0.495;entryY=0.35;entryDx=0;entryDy=0;entryPerimeter=0;" edge="1" parent="WIyWlLk6GJQsqaUBKTNV-1" source="yv-5bSZ3Bk_qHTzuzEl7-0" target="yv-5bSZ3Bk_qHTzuzEl7-11">
          <mxGeometry width="160" relative="1" as="geometry">
            <mxPoint x="83" y="20" as="sourcePoint" />
            <mxPoint x="258" y="21" as="targetPoint" />
            <Array as="points" />
          </mxGeometry>
        </mxCell>
        <mxCell id="yv-5bSZ3Bk_qHTzuzEl7-11" value="&lt;font style=&quot;font-size: 15px;&quot;&gt;1. UserName,password&lt;/font&gt;" style="text;html=1;align=center;verticalAlign=middle;resizable=0;points=[];autosize=1;strokeColor=none;fillColor=none;fontSize=20;fontFamily=Architects Daughter;" vertex="1" parent="WIyWlLk6GJQsqaUBKTNV-1">
          <mxGeometry x="91" y="-5" width="167" height="36" as="geometry" />
        </mxCell>
        <mxCell id="yv-5bSZ3Bk_qHTzuzEl7-12" value="" style="endArrow=open;endFill=1;endSize=12;html=1;rounded=0;sketch=1;hachureGap=4;jiggle=2;curveFitting=1;fontFamily=Architects Daughter;fontSource=https%3A%2F%2Ffonts.googleapis.com%2Fcss%3Ffamily%3DArchitects%2BDaughter;fontSize=16;curved=1;" edge="1" parent="WIyWlLk6GJQsqaUBKTNV-1" source="yv-5bSZ3Bk_qHTzuzEl7-4" target="yv-5bSZ3Bk_qHTzuzEl7-13">
          <mxGeometry width="160" relative="1" as="geometry">
            <mxPoint x="258" y="-2" as="sourcePoint" />
            <mxPoint x="424" y="-2" as="targetPoint" />
            <Array as="points" />
          </mxGeometry>
        </mxCell>
        <mxCell id="yv-5bSZ3Bk_qHTzuzEl7-13" value="&lt;font style=&quot;font-size: 16px;&quot;&gt;2. UserCheck&lt;/font&gt;" style="text;html=1;align=center;verticalAlign=middle;resizable=0;points=[];autosize=1;strokeColor=none;fillColor=none;fontSize=20;fontFamily=Architects Daughter;" vertex="1" parent="WIyWlLk6GJQsqaUBKTNV-1">
          <mxGeometry x="272" y="-26" width="118" height="36" as="geometry" />
        </mxCell>
        <mxCell id="yv-5bSZ3Bk_qHTzuzEl7-14" value="&lt;p style=&quot;line-height: 70%;&quot;&gt;&lt;font color=&quot;#ea6b66&quot; style=&quot;font-size: 15px;&quot;&gt;:Course&lt;br&gt;Management&lt;/font&gt;&lt;/p&gt;" style="shape=umlLifeline;perimeter=lifelinePerimeter;whiteSpace=wrap;html=1;container=1;dropTarget=0;collapsible=0;recursiveResize=0;outlineConnect=0;portConstraint=eastwest;newEdgeStyle={&quot;curved&quot;:0,&quot;rounded&quot;:0};sketch=1;hachureGap=4;jiggle=2;curveFitting=1;fontFamily=Architects Daughter;fontSource=https%3A%2F%2Ffonts.googleapis.com%2Fcss%3Ffamily%3DArchitects%2BDaughter;fontSize=20;size=41;" vertex="1" parent="WIyWlLk6GJQsqaUBKTNV-1">
          <mxGeometry x="1108" y="-91" width="100" height="313" as="geometry" />
        </mxCell>
        <mxCell id="yv-5bSZ3Bk_qHTzuzEl7-15" value="" style="html=1;points=[[0,0,0,0,5],[0,1,0,0,-5],[1,0,0,0,5],[1,1,0,0,-5]];perimeter=orthogonalPerimeter;outlineConnect=0;targetShapes=umlLifeline;portConstraint=eastwest;newEdgeStyle={&quot;curved&quot;:0,&quot;rounded&quot;:0};sketch=1;hachureGap=4;jiggle=2;curveFitting=1;fontFamily=Architects Daughter;fontSource=https%3A%2F%2Ffonts.googleapis.com%2Fcss%3Ffamily%3DArchitects%2BDaughter;fontSize=20;" vertex="1" parent="yv-5bSZ3Bk_qHTzuzEl7-14">
          <mxGeometry x="45" y="206" width="10" height="107" as="geometry" />
        </mxCell>
        <mxCell id="yv-5bSZ3Bk_qHTzuzEl7-16" value="&lt;font color=&quot;#ea6b66&quot; style=&quot;font-size: 17px;&quot;&gt;:Resources&lt;/font&gt;" style="shape=umlLifeline;perimeter=lifelinePerimeter;whiteSpace=wrap;html=1;container=1;dropTarget=0;collapsible=0;recursiveResize=0;outlineConnect=0;portConstraint=eastwest;newEdgeStyle={&quot;curved&quot;:0,&quot;rounded&quot;:0};sketch=1;hachureGap=4;jiggle=2;curveFitting=1;fontFamily=Architects Daughter;fontSource=https%3A%2F%2Ffonts.googleapis.com%2Fcss%3Ffamily%3DArchitects%2BDaughter;fontSize=20;" vertex="1" parent="WIyWlLk6GJQsqaUBKTNV-1">
          <mxGeometry x="1317" y="-89.5" width="100" height="584" as="geometry" />
        </mxCell>
        <mxCell id="yv-5bSZ3Bk_qHTzuzEl7-17" value="" style="html=1;points=[[0,0,0,0,5],[0,1,0,0,-5],[1,0,0,0,5],[1,1,0,0,-5]];perimeter=orthogonalPerimeter;outlineConnect=0;targetShapes=umlLifeline;portConstraint=eastwest;newEdgeStyle={&quot;curved&quot;:0,&quot;rounded&quot;:0};sketch=1;hachureGap=4;jiggle=2;curveFitting=1;fontFamily=Architects Daughter;fontSource=https%3A%2F%2Ffonts.googleapis.com%2Fcss%3Ffamily%3DArchitects%2BDaughter;fontSize=20;" vertex="1" parent="yv-5bSZ3Bk_qHTzuzEl7-16">
          <mxGeometry x="45" y="275.5" width="10" height="80" as="geometry" />
        </mxCell>
        <mxCell id="yv-5bSZ3Bk_qHTzuzEl7-18" value="&lt;font color=&quot;#ea6b66&quot;&gt;:grades&lt;/font&gt;" style="shape=umlLifeline;perimeter=lifelinePerimeter;whiteSpace=wrap;html=1;container=1;dropTarget=0;collapsible=0;recursiveResize=0;outlineConnect=0;portConstraint=eastwest;newEdgeStyle={&quot;curved&quot;:0,&quot;rounded&quot;:0};sketch=1;hachureGap=4;jiggle=2;curveFitting=1;fontFamily=Architects Daughter;fontSource=https%3A%2F%2Ffonts.googleapis.com%2Fcss%3Ffamily%3DArchitects%2BDaughter;fontSize=20;" vertex="1" parent="WIyWlLk6GJQsqaUBKTNV-1">
          <mxGeometry x="1516" y="-88" width="100" height="623" as="geometry" />
        </mxCell>
        <mxCell id="yv-5bSZ3Bk_qHTzuzEl7-19" value="" style="html=1;points=[[0,0,0,0,5],[0,1,0,0,-5],[1,0,0,0,5],[1,1,0,0,-5]];perimeter=orthogonalPerimeter;outlineConnect=0;targetShapes=umlLifeline;portConstraint=eastwest;newEdgeStyle={&quot;curved&quot;:0,&quot;rounded&quot;:0};sketch=1;hachureGap=4;jiggle=2;curveFitting=1;fontFamily=Architects Daughter;fontSource=https%3A%2F%2Ffonts.googleapis.com%2Fcss%3Ffamily%3DArchitects%2BDaughter;fontSize=20;" vertex="1" parent="yv-5bSZ3Bk_qHTzuzEl7-18">
          <mxGeometry x="47" y="260" width="10" height="257" as="geometry" />
        </mxCell>
        <mxCell id="yv-5bSZ3Bk_qHTzuzEl7-20" value="&lt;p style=&quot;line-height: 80%; font-size: 16px;&quot;&gt;&lt;font color=&quot;#ea6b66&quot; style=&quot;font-size: 16px;&quot;&gt;:Attendance&lt;br&gt;management&lt;/font&gt;&lt;br&gt;&lt;/p&gt;" style="shape=umlLifeline;perimeter=lifelinePerimeter;whiteSpace=wrap;html=1;container=1;dropTarget=0;collapsible=0;recursiveResize=0;outlineConnect=0;portConstraint=eastwest;newEdgeStyle={&quot;curved&quot;:0,&quot;rounded&quot;:0};sketch=1;hachureGap=4;jiggle=2;curveFitting=1;fontFamily=Architects Daughter;fontSource=https%3A%2F%2Ffonts.googleapis.com%2Fcss%3Ffamily%3DArchitects%2BDaughter;fontSize=20;" vertex="1" parent="WIyWlLk6GJQsqaUBKTNV-1">
          <mxGeometry x="1737" y="-89.5" width="100" height="946.5" as="geometry" />
        </mxCell>
        <mxCell id="yv-5bSZ3Bk_qHTzuzEl7-21" value="" style="html=1;points=[[0,0,0,0,5],[0,1,0,0,-5],[1,0,0,0,5],[1,1,0,0,-5]];perimeter=orthogonalPerimeter;outlineConnect=0;targetShapes=umlLifeline;portConstraint=eastwest;newEdgeStyle={&quot;curved&quot;:0,&quot;rounded&quot;:0};sketch=1;hachureGap=4;jiggle=2;curveFitting=1;fontFamily=Architects Daughter;fontSource=https%3A%2F%2Ffonts.googleapis.com%2Fcss%3Ffamily%3DArchitects%2BDaughter;fontSize=20;" vertex="1" parent="yv-5bSZ3Bk_qHTzuzEl7-20">
          <mxGeometry x="45" y="438.5" width="10" height="198.5" as="geometry" />
        </mxCell>
        <mxCell id="yv-5bSZ3Bk_qHTzuzEl7-22" value="&lt;p style=&quot;line-height: 60%;&quot;&gt;&lt;font color=&quot;#ea6b66&quot; style=&quot;font-size: 14px;&quot;&gt;:Notice&lt;br&gt;Announcement&lt;/font&gt;&lt;br&gt;&lt;/p&gt;" style="shape=umlLifeline;perimeter=lifelinePerimeter;whiteSpace=wrap;html=1;container=1;dropTarget=0;collapsible=0;recursiveResize=0;outlineConnect=0;portConstraint=eastwest;newEdgeStyle={&quot;curved&quot;:0,&quot;rounded&quot;:0};sketch=1;hachureGap=4;jiggle=2;curveFitting=1;fontFamily=Architects Daughter;fontSource=https%3A%2F%2Ffonts.googleapis.com%2Fcss%3Ffamily%3DArchitects%2BDaughter;fontSize=20;" vertex="1" parent="WIyWlLk6GJQsqaUBKTNV-1">
          <mxGeometry x="1944" y="-88" width="100" height="984" as="geometry" />
        </mxCell>
        <mxCell id="yv-5bSZ3Bk_qHTzuzEl7-23" value="" style="html=1;points=[[0,0,0,0,5],[0,1,0,0,-5],[1,0,0,0,5],[1,1,0,0,-5]];perimeter=orthogonalPerimeter;outlineConnect=0;targetShapes=umlLifeline;portConstraint=eastwest;newEdgeStyle={&quot;curved&quot;:0,&quot;rounded&quot;:0};sketch=1;hachureGap=4;jiggle=2;curveFitting=1;fontFamily=Architects Daughter;fontSource=https%3A%2F%2Ffonts.googleapis.com%2Fcss%3Ffamily%3DArchitects%2BDaughter;fontSize=20;" vertex="1" parent="yv-5bSZ3Bk_qHTzuzEl7-22">
          <mxGeometry x="45" y="505" width="10" height="216" as="geometry" />
        </mxCell>
        <mxCell id="yv-5bSZ3Bk_qHTzuzEl7-24" value="&lt;p style=&quot;line-height: 80%; font-size: 16px;&quot;&gt;&lt;font color=&quot;#ea6b66&quot; style=&quot;font-size: 16px;&quot;&gt;:Campus&lt;br&gt;Navigation&lt;/font&gt;&lt;br&gt;&lt;/p&gt;" style="shape=umlLifeline;perimeter=lifelinePerimeter;whiteSpace=wrap;html=1;container=1;dropTarget=0;collapsible=0;recursiveResize=0;outlineConnect=0;portConstraint=eastwest;newEdgeStyle={&quot;curved&quot;:0,&quot;rounded&quot;:0};sketch=1;hachureGap=4;jiggle=2;curveFitting=1;fontFamily=Architects Daughter;fontSource=https%3A%2F%2Ffonts.googleapis.com%2Fcss%3Ffamily%3DArchitects%2BDaughter;fontSize=20;" vertex="1" parent="WIyWlLk6GJQsqaUBKTNV-1">
          <mxGeometry x="2145" y="-85" width="100" height="1021" as="geometry" />
        </mxCell>
        <mxCell id="yv-5bSZ3Bk_qHTzuzEl7-25" value="" style="html=1;points=[[0,0,0,0,5],[0,1,0,0,-5],[1,0,0,0,5],[1,1,0,0,-5]];perimeter=orthogonalPerimeter;outlineConnect=0;targetShapes=umlLifeline;portConstraint=eastwest;newEdgeStyle={&quot;curved&quot;:0,&quot;rounded&quot;:0};sketch=1;hachureGap=4;jiggle=2;curveFitting=1;fontFamily=Architects Daughter;fontSource=https%3A%2F%2Ffonts.googleapis.com%2Fcss%3Ffamily%3DArchitects%2BDaughter;fontSize=20;" vertex="1" parent="yv-5bSZ3Bk_qHTzuzEl7-24">
          <mxGeometry x="45" y="558" width="10" height="233" as="geometry" />
        </mxCell>
        <mxCell id="yv-5bSZ3Bk_qHTzuzEl7-26" value="&lt;p style=&quot;line-height: 80%; font-size: 16px;&quot;&gt;&lt;font color=&quot;#ea6b66&quot;&gt;:Social&lt;br&gt;interaction&lt;/font&gt;&lt;br&gt;&lt;/p&gt;" style="shape=umlLifeline;perimeter=lifelinePerimeter;whiteSpace=wrap;html=1;container=1;dropTarget=0;collapsible=0;recursiveResize=0;outlineConnect=0;portConstraint=eastwest;newEdgeStyle={&quot;curved&quot;:0,&quot;rounded&quot;:0};sketch=1;hachureGap=4;jiggle=2;curveFitting=1;fontFamily=Architects Daughter;fontSource=https%3A%2F%2Ffonts.googleapis.com%2Fcss%3Ffamily%3DArchitects%2BDaughter;fontSize=20;" vertex="1" parent="WIyWlLk6GJQsqaUBKTNV-1">
          <mxGeometry x="2350" y="-84" width="100" height="1047" as="geometry" />
        </mxCell>
        <mxCell id="yv-5bSZ3Bk_qHTzuzEl7-27" value="" style="html=1;points=[[0,0,0,0,5],[0,1,0,0,-5],[1,0,0,0,5],[1,1,0,0,-5]];perimeter=orthogonalPerimeter;outlineConnect=0;targetShapes=umlLifeline;portConstraint=eastwest;newEdgeStyle={&quot;curved&quot;:0,&quot;rounded&quot;:0};sketch=1;hachureGap=4;jiggle=2;curveFitting=1;fontFamily=Architects Daughter;fontSource=https%3A%2F%2Ffonts.googleapis.com%2Fcss%3Ffamily%3DArchitects%2BDaughter;fontSize=20;" vertex="1" parent="yv-5bSZ3Bk_qHTzuzEl7-26">
          <mxGeometry x="42" y="626" width="10" height="277" as="geometry" />
        </mxCell>
        <mxCell id="yv-5bSZ3Bk_qHTzuzEl7-28" value="&lt;p style=&quot;line-height: 90%; font-size: 16px;&quot;&gt;&lt;font color=&quot;#ea6b66&quot;&gt;:Canteen&lt;br&gt;reservation&lt;/font&gt;&lt;br&gt;&lt;/p&gt;" style="shape=umlLifeline;perimeter=lifelinePerimeter;whiteSpace=wrap;html=1;container=1;dropTarget=0;collapsible=0;recursiveResize=0;outlineConnect=0;portConstraint=eastwest;newEdgeStyle={&quot;curved&quot;:0,&quot;rounded&quot;:0};sketch=1;hachureGap=4;jiggle=2;curveFitting=1;fontFamily=Architects Daughter;fontSource=https%3A%2F%2Ffonts.googleapis.com%2Fcss%3Ffamily%3DArchitects%2BDaughter;fontSize=20;" vertex="1" parent="WIyWlLk6GJQsqaUBKTNV-1">
          <mxGeometry x="2554" y="-85" width="100" height="1065" as="geometry" />
        </mxCell>
        <mxCell id="yv-5bSZ3Bk_qHTzuzEl7-29" value="" style="html=1;points=[[0,0,0,0,5],[0,1,0,0,-5],[1,0,0,0,5],[1,1,0,0,-5]];perimeter=orthogonalPerimeter;outlineConnect=0;targetShapes=umlLifeline;portConstraint=eastwest;newEdgeStyle={&quot;curved&quot;:0,&quot;rounded&quot;:0};sketch=1;hachureGap=4;jiggle=2;curveFitting=1;fontFamily=Architects Daughter;fontSource=https%3A%2F%2Ffonts.googleapis.com%2Fcss%3Ffamily%3DArchitects%2BDaughter;fontSize=20;" vertex="1" parent="yv-5bSZ3Bk_qHTzuzEl7-28">
          <mxGeometry x="45" y="748" width="10" height="196" as="geometry" />
        </mxCell>
        <mxCell id="yv-5bSZ3Bk_qHTzuzEl7-30" value="&lt;p style=&quot;line-height: 90%; font-size: 15px;&quot;&gt;&lt;font color=&quot;#ea6b66&quot;&gt;:Exam&lt;br&gt;arrangements&lt;/font&gt;&lt;br&gt;&lt;/p&gt;" style="shape=umlLifeline;perimeter=lifelinePerimeter;whiteSpace=wrap;html=1;container=1;dropTarget=0;collapsible=0;recursiveResize=0;outlineConnect=0;portConstraint=eastwest;newEdgeStyle={&quot;curved&quot;:0,&quot;rounded&quot;:0};sketch=1;hachureGap=4;jiggle=2;curveFitting=1;fontFamily=Architects Daughter;fontSource=https%3A%2F%2Ffonts.googleapis.com%2Fcss%3Ffamily%3DArchitects%2BDaughter;fontSize=20;" vertex="1" parent="WIyWlLk6GJQsqaUBKTNV-1">
          <mxGeometry x="2703" y="-90" width="100" height="300" as="geometry" />
        </mxCell>
        <mxCell id="yv-5bSZ3Bk_qHTzuzEl7-31" value="&lt;p style=&quot;line-height: 90%; font-size: 16px;&quot;&gt;&lt;font color=&quot;#ea6b66&quot;&gt;:Campus&lt;br&gt;Information&lt;/font&gt;&lt;br&gt;&lt;/p&gt;" style="shape=umlLifeline;perimeter=lifelinePerimeter;whiteSpace=wrap;html=1;container=1;dropTarget=0;collapsible=0;recursiveResize=0;outlineConnect=0;portConstraint=eastwest;newEdgeStyle={&quot;curved&quot;:0,&quot;rounded&quot;:0};sketch=1;hachureGap=4;jiggle=2;curveFitting=1;fontFamily=Architects Daughter;fontSource=https%3A%2F%2Ffonts.googleapis.com%2Fcss%3Ffamily%3DArchitects%2BDaughter;fontSize=20;" vertex="1" parent="WIyWlLk6GJQsqaUBKTNV-1">
          <mxGeometry x="2901" y="-90" width="100" height="300" as="geometry" />
        </mxCell>
        <mxCell id="yv-5bSZ3Bk_qHTzuzEl7-32" value="&lt;p style=&quot;line-height: 90%; font-size: 16px;&quot;&gt;:&lt;font color=&quot;#ea6b66&quot;&gt;Student&lt;br&gt;Evalution&lt;/font&gt;&lt;br&gt;&lt;/p&gt;" style="shape=umlLifeline;perimeter=lifelinePerimeter;whiteSpace=wrap;html=1;container=1;dropTarget=0;collapsible=0;recursiveResize=0;outlineConnect=0;portConstraint=eastwest;newEdgeStyle={&quot;curved&quot;:0,&quot;rounded&quot;:0};sketch=1;hachureGap=4;jiggle=2;curveFitting=1;fontFamily=Architects Daughter;fontSource=https%3A%2F%2Ffonts.googleapis.com%2Fcss%3Ffamily%3DArchitects%2BDaughter;fontSize=20;" vertex="1" parent="WIyWlLk6GJQsqaUBKTNV-1">
          <mxGeometry x="3116" y="-88" width="100" height="300" as="geometry" />
        </mxCell>
        <mxCell id="yv-5bSZ3Bk_qHTzuzEl7-33" value="&lt;p style=&quot;line-height: 90%; font-size: 16px;&quot;&gt;&lt;font color=&quot;#ea6b66&quot;&gt;:Management&lt;br&gt;backend&lt;/font&gt;&lt;br&gt;&lt;/p&gt;" style="shape=umlLifeline;perimeter=lifelinePerimeter;whiteSpace=wrap;html=1;container=1;dropTarget=0;collapsible=0;recursiveResize=0;outlineConnect=0;portConstraint=eastwest;newEdgeStyle={&quot;curved&quot;:0,&quot;rounded&quot;:0};sketch=1;hachureGap=4;jiggle=2;curveFitting=1;fontFamily=Architects Daughter;fontSource=https%3A%2F%2Ffonts.googleapis.com%2Fcss%3Ffamily%3DArchitects%2BDaughter;fontSize=20;" vertex="1" parent="WIyWlLk6GJQsqaUBKTNV-1">
          <mxGeometry x="3315" y="-88" width="100" height="300" as="geometry" />
        </mxCell>
        <mxCell id="yv-5bSZ3Bk_qHTzuzEl7-34" value="" style="endArrow=open;endFill=1;endSize=12;html=1;rounded=0;sketch=1;hachureGap=4;jiggle=2;curveFitting=1;fontFamily=Architects Daughter;fontSource=https%3A%2F%2Ffonts.googleapis.com%2Fcss%3Ffamily%3DArchitects%2BDaughter;fontSize=16;curved=1;" edge="1" parent="WIyWlLk6GJQsqaUBKTNV-1" source="yv-5bSZ3Bk_qHTzuzEl7-36" target="yv-5bSZ3Bk_qHTzuzEl7-2">
          <mxGeometry width="160" relative="1" as="geometry">
            <mxPoint x="419" y="69" as="sourcePoint" />
            <mxPoint x="83" y="69" as="targetPoint" />
            <Array as="points" />
          </mxGeometry>
        </mxCell>
        <mxCell id="yv-5bSZ3Bk_qHTzuzEl7-35" value="" style="endArrow=open;endFill=1;endSize=12;html=1;rounded=0;sketch=1;hachureGap=4;jiggle=2;curveFitting=1;fontFamily=Architects Daughter;fontSource=https%3A%2F%2Ffonts.googleapis.com%2Fcss%3Ffamily%3DArchitects%2BDaughter;fontSize=16;curved=1;" edge="1" parent="WIyWlLk6GJQsqaUBKTNV-1" source="yv-5bSZ3Bk_qHTzuzEl7-7" target="yv-5bSZ3Bk_qHTzuzEl7-36">
          <mxGeometry width="160" relative="1" as="geometry">
            <mxPoint x="419" y="69" as="sourcePoint" />
            <mxPoint x="91" y="69" as="targetPoint" />
            <Array as="points">
              <mxPoint x="252" y="69" />
            </Array>
          </mxGeometry>
        </mxCell>
        <mxCell id="yv-5bSZ3Bk_qHTzuzEl7-36" value="&lt;font style=&quot;font-size: 19px;&quot;&gt;Login Failed&lt;/font&gt;" style="text;html=1;align=center;verticalAlign=middle;resizable=0;points=[];autosize=1;strokeColor=none;fillColor=none;fontSize=20;fontFamily=Architects Daughter;" vertex="1" parent="WIyWlLk6GJQsqaUBKTNV-1">
          <mxGeometry x="130" y="42" width="120" height="37" as="geometry" />
        </mxCell>
        <mxCell id="yv-5bSZ3Bk_qHTzuzEl7-37" value="" style="shape=umlLifeline;perimeter=lifelinePerimeter;whiteSpace=wrap;html=1;container=1;dropTarget=0;collapsible=0;recursiveResize=0;outlineConnect=0;portConstraint=eastwest;newEdgeStyle={&quot;curved&quot;:0,&quot;rounded&quot;:0};participant=umlActor;sketch=1;hachureGap=4;jiggle=2;curveFitting=1;fontFamily=Architects Daughter;fontSource=https%3A%2F%2Ffonts.googleapis.com%2Fcss%3Ffamily%3DArchitects%2BDaughter;fontSize=20;" vertex="1" parent="WIyWlLk6GJQsqaUBKTNV-1">
          <mxGeometry x="-73" y="-80" width="20" height="295" as="geometry" />
        </mxCell>
        <mxCell id="yv-5bSZ3Bk_qHTzuzEl7-38" value="" style="html=1;points=[[0,0,0,0,5],[0,1,0,0,-5],[1,0,0,0,5],[1,1,0,0,-5]];perimeter=orthogonalPerimeter;outlineConnect=0;targetShapes=umlLifeline;portConstraint=eastwest;newEdgeStyle={&quot;curved&quot;:0,&quot;rounded&quot;:0};sketch=1;hachureGap=4;jiggle=2;curveFitting=1;fontFamily=Architects Daughter;fontSource=https%3A%2F%2Ffonts.googleapis.com%2Fcss%3Ffamily%3DArchitects%2BDaughter;fontSize=20;" vertex="1" parent="yv-5bSZ3Bk_qHTzuzEl7-37">
          <mxGeometry x="7" y="61" width="10" height="232" as="geometry" />
        </mxCell>
        <mxCell id="yv-5bSZ3Bk_qHTzuzEl7-39" value="" style="endArrow=open;endFill=1;endSize=12;html=1;rounded=0;sketch=1;hachureGap=4;jiggle=2;curveFitting=1;fontFamily=Architects Daughter;fontSource=https%3A%2F%2Ffonts.googleapis.com%2Fcss%3Ffamily%3DArchitects%2BDaughter;fontSize=16;curved=1;" edge="1" parent="WIyWlLk6GJQsqaUBKTNV-1" source="yv-5bSZ3Bk_qHTzuzEl7-41" target="yv-5bSZ3Bk_qHTzuzEl7-1">
          <mxGeometry width="160" relative="1" as="geometry">
            <mxPoint x="18" y="56" as="sourcePoint" />
            <mxPoint x="178" y="56" as="targetPoint" />
            <Array as="points">
              <mxPoint x="14" y="-13" />
            </Array>
          </mxGeometry>
        </mxCell>
        <mxCell id="yv-5bSZ3Bk_qHTzuzEl7-40" value="" style="endArrow=open;endFill=1;endSize=12;html=1;rounded=0;sketch=1;hachureGap=4;jiggle=2;curveFitting=1;fontFamily=Architects Daughter;fontSource=https%3A%2F%2Ffonts.googleapis.com%2Fcss%3Ffamily%3DArchitects%2BDaughter;fontSize=16;curved=1;" edge="1" parent="WIyWlLk6GJQsqaUBKTNV-1" source="yv-5bSZ3Bk_qHTzuzEl7-38" target="yv-5bSZ3Bk_qHTzuzEl7-41">
          <mxGeometry width="160" relative="1" as="geometry">
            <mxPoint x="-56" y="-13" as="sourcePoint" />
            <mxPoint x="78" y="-13" as="targetPoint" />
            <Array as="points" />
          </mxGeometry>
        </mxCell>
        <mxCell id="yv-5bSZ3Bk_qHTzuzEl7-41" value="Visit" style="text;html=1;align=center;verticalAlign=middle;resizable=0;points=[];autosize=1;strokeColor=none;fillColor=none;fontSize=20;fontFamily=Architects Daughter;" vertex="1" parent="WIyWlLk6GJQsqaUBKTNV-1">
          <mxGeometry x="-27" y="-33" width="55" height="36" as="geometry" />
        </mxCell>
        <mxCell id="yv-5bSZ3Bk_qHTzuzEl7-42" value="" style="shape=umlLifeline;perimeter=lifelinePerimeter;whiteSpace=wrap;html=1;container=1;dropTarget=0;collapsible=0;recursiveResize=0;outlineConnect=0;portConstraint=eastwest;newEdgeStyle={&quot;curved&quot;:0,&quot;rounded&quot;:0};participant=umlActor;sketch=1;hachureGap=4;jiggle=2;curveFitting=1;fontFamily=Architects Daughter;fontSource=https%3A%2F%2Ffonts.googleapis.com%2Fcss%3Ffamily%3DArchitects%2BDaughter;fontSize=20;" vertex="1" parent="WIyWlLk6GJQsqaUBKTNV-1">
          <mxGeometry x="623" y="-82.5" width="20" height="1011" as="geometry" />
        </mxCell>
        <mxCell id="yv-5bSZ3Bk_qHTzuzEl7-43" value="" style="html=1;points=[[0,0,0,0,5],[0,1,0,0,-5],[1,0,0,0,5],[1,1,0,0,-5]];perimeter=orthogonalPerimeter;outlineConnect=0;targetShapes=umlLifeline;portConstraint=eastwest;newEdgeStyle={&quot;curved&quot;:0,&quot;rounded&quot;:0};sketch=1;hachureGap=4;jiggle=2;curveFitting=1;fontFamily=Architects Daughter;fontSource=https%3A%2F%2Ffonts.googleapis.com%2Fcss%3Ffamily%3DArchitects%2BDaughter;fontSize=20;" vertex="1" parent="yv-5bSZ3Bk_qHTzuzEl7-42">
          <mxGeometry x="3" y="80" width="10" height="931" as="geometry" />
        </mxCell>
        <mxCell id="yv-5bSZ3Bk_qHTzuzEl7-44" value="" style="shape=umlLifeline;perimeter=lifelinePerimeter;whiteSpace=wrap;html=1;container=1;dropTarget=0;collapsible=0;recursiveResize=0;outlineConnect=0;portConstraint=eastwest;newEdgeStyle={&quot;curved&quot;:0,&quot;rounded&quot;:0};participant=umlActor;sketch=1;hachureGap=4;jiggle=2;curveFitting=1;fontFamily=Architects Daughter;fontSource=https%3A%2F%2Ffonts.googleapis.com%2Fcss%3Ffamily%3DArchitects%2BDaughter;fontSize=20;" vertex="1" parent="WIyWlLk6GJQsqaUBKTNV-1">
          <mxGeometry x="773" y="-80" width="20" height="1048" as="geometry" />
        </mxCell>
        <mxCell id="yv-5bSZ3Bk_qHTzuzEl7-45" value="" style="html=1;points=[[0,0,0,0,5],[0,1,0,0,-5],[1,0,0,0,5],[1,1,0,0,-5]];perimeter=orthogonalPerimeter;outlineConnect=0;targetShapes=umlLifeline;portConstraint=eastwest;newEdgeStyle={&quot;curved&quot;:0,&quot;rounded&quot;:0};sketch=1;hachureGap=4;jiggle=2;curveFitting=1;fontFamily=Architects Daughter;fontSource=https%3A%2F%2Ffonts.googleapis.com%2Fcss%3Ffamily%3DArchitects%2BDaughter;fontSize=20;" vertex="1" parent="yv-5bSZ3Bk_qHTzuzEl7-44">
          <mxGeometry x="5" y="103" width="10" height="945" as="geometry" />
        </mxCell>
        <mxCell id="yv-5bSZ3Bk_qHTzuzEl7-46" value="" style="shape=umlLifeline;perimeter=lifelinePerimeter;whiteSpace=wrap;html=1;container=1;dropTarget=0;collapsible=0;recursiveResize=0;outlineConnect=0;portConstraint=eastwest;newEdgeStyle={&quot;curved&quot;:0,&quot;rounded&quot;:0};participant=umlActor;sketch=1;hachureGap=4;jiggle=2;curveFitting=1;fontFamily=Architects Daughter;fontSource=https%3A%2F%2Ffonts.googleapis.com%2Fcss%3Ffamily%3DArchitects%2BDaughter;fontSize=20;" vertex="1" parent="WIyWlLk6GJQsqaUBKTNV-1">
          <mxGeometry x="948" y="-84" width="20" height="1037" as="geometry" />
        </mxCell>
        <mxCell id="yv-5bSZ3Bk_qHTzuzEl7-47" value="" style="html=1;points=[[0,0,0,0,5],[0,1,0,0,-5],[1,0,0,0,5],[1,1,0,0,-5]];perimeter=orthogonalPerimeter;outlineConnect=0;targetShapes=umlLifeline;portConstraint=eastwest;newEdgeStyle={&quot;curved&quot;:0,&quot;rounded&quot;:0};sketch=1;hachureGap=4;jiggle=2;curveFitting=1;fontFamily=Architects Daughter;fontSource=https%3A%2F%2Ffonts.googleapis.com%2Fcss%3Ffamily%3DArchitects%2BDaughter;fontSize=20;" vertex="1" parent="yv-5bSZ3Bk_qHTzuzEl7-46">
          <mxGeometry x="3" y="152" width="10" height="885" as="geometry" />
        </mxCell>
        <mxCell id="yv-5bSZ3Bk_qHTzuzEl7-48" value="&lt;font style=&quot;font-size: 16px;&quot;&gt;:Student&lt;/font&gt;" style="text;html=1;align=center;verticalAlign=middle;resizable=0;points=[];autosize=1;strokeColor=none;fillColor=none;fontSize=20;fontFamily=Architects Daughter;" vertex="1" parent="WIyWlLk6GJQsqaUBKTNV-1">
          <mxGeometry x="594.5" y="-112" width="77" height="36" as="geometry" />
        </mxCell>
        <mxCell id="yv-5bSZ3Bk_qHTzuzEl7-49" value="&lt;font style=&quot;font-size: 16px;&quot;&gt;:Teacher&lt;/font&gt;" style="text;html=1;align=center;verticalAlign=middle;resizable=0;points=[];autosize=1;strokeColor=none;fillColor=none;fontSize=20;fontFamily=Architects Daughter;" vertex="1" parent="WIyWlLk6GJQsqaUBKTNV-1">
          <mxGeometry x="741.5" y="-112" width="83" height="36" as="geometry" />
        </mxCell>
        <mxCell id="yv-5bSZ3Bk_qHTzuzEl7-50" value="&lt;font style=&quot;font-size: 16px;&quot;&gt;:Parent&lt;/font&gt;" style="text;html=1;align=center;verticalAlign=middle;resizable=0;points=[];autosize=1;strokeColor=none;fillColor=none;fontSize=20;fontFamily=Architects Daughter;" vertex="1" parent="WIyWlLk6GJQsqaUBKTNV-1">
          <mxGeometry x="922.5" y="-112" width="71" height="36" as="geometry" />
        </mxCell>
        <mxCell id="yv-5bSZ3Bk_qHTzuzEl7-51" value="" style="endArrow=open;endFill=1;endSize=12;html=1;rounded=0;sketch=1;hachureGap=4;jiggle=2;curveFitting=1;fontFamily=Architects Daughter;fontSource=https%3A%2F%2Ffonts.googleapis.com%2Fcss%3Ffamily%3DArchitects%2BDaughter;fontSize=16;curved=1;" edge="1" parent="WIyWlLk6GJQsqaUBKTNV-1" source="yv-5bSZ3Bk_qHTzuzEl7-55" target="yv-5bSZ3Bk_qHTzuzEl7-43">
          <mxGeometry width="160" relative="1" as="geometry">
            <mxPoint x="429" y="7" as="sourcePoint" />
            <mxPoint x="633" y="6" as="targetPoint" />
          </mxGeometry>
        </mxCell>
        <mxCell id="yv-5bSZ3Bk_qHTzuzEl7-52" value="" style="endArrow=open;endFill=1;endSize=12;html=1;rounded=0;sketch=1;hachureGap=4;jiggle=2;curveFitting=1;fontFamily=Architects Daughter;fontSource=https%3A%2F%2Ffonts.googleapis.com%2Fcss%3Ffamily%3DArchitects%2BDaughter;fontSize=16;curved=1;" edge="1" parent="WIyWlLk6GJQsqaUBKTNV-1" source="yv-5bSZ3Bk_qHTzuzEl7-57" target="yv-5bSZ3Bk_qHTzuzEl7-45">
          <mxGeometry width="160" relative="1" as="geometry">
            <mxPoint x="520" y="-3" as="sourcePoint" />
            <mxPoint x="680" y="-3" as="targetPoint" />
            <Array as="points">
              <mxPoint x="608" y="36" />
            </Array>
          </mxGeometry>
        </mxCell>
        <mxCell id="yv-5bSZ3Bk_qHTzuzEl7-53" value="" style="endArrow=open;endFill=1;endSize=12;html=1;rounded=0;sketch=1;hachureGap=4;jiggle=2;curveFitting=1;fontFamily=Architects Daughter;fontSource=https%3A%2F%2Ffonts.googleapis.com%2Fcss%3Ffamily%3DArchitects%2BDaughter;fontSize=16;curved=1;exitX=1;exitY=0.911;exitDx=0;exitDy=0;exitPerimeter=0;" edge="1" parent="WIyWlLk6GJQsqaUBKTNV-1" source="yv-5bSZ3Bk_qHTzuzEl7-59" target="yv-5bSZ3Bk_qHTzuzEl7-47">
          <mxGeometry width="160" relative="1" as="geometry">
            <mxPoint x="430" y="61.78099999999996" as="sourcePoint" />
            <mxPoint x="958.5" y="61.78099999999996" as="targetPoint" />
          </mxGeometry>
        </mxCell>
        <mxCell id="yv-5bSZ3Bk_qHTzuzEl7-54" value="" style="endArrow=open;endFill=1;endSize=12;html=1;rounded=0;sketch=1;hachureGap=4;jiggle=2;curveFitting=1;fontFamily=Architects Daughter;fontSource=https%3A%2F%2Ffonts.googleapis.com%2Fcss%3Ffamily%3DArchitects%2BDaughter;fontSize=16;curved=1;" edge="1" parent="WIyWlLk6GJQsqaUBKTNV-1" source="yv-5bSZ3Bk_qHTzuzEl7-7" target="yv-5bSZ3Bk_qHTzuzEl7-55">
          <mxGeometry width="160" relative="1" as="geometry">
            <mxPoint x="429" y="6" as="sourcePoint" />
            <mxPoint x="633" y="6" as="targetPoint" />
          </mxGeometry>
        </mxCell>
        <mxCell id="yv-5bSZ3Bk_qHTzuzEl7-55" value="&lt;font style=&quot;font-size: 16px;&quot;&gt;If Student&lt;/font&gt;" style="text;html=1;align=center;verticalAlign=middle;resizable=0;points=[];autosize=1;strokeColor=none;fillColor=none;fontSize=20;fontFamily=Architects Daughter;" vertex="1" parent="WIyWlLk6GJQsqaUBKTNV-1">
          <mxGeometry x="474" y="-13.5" width="93" height="36" as="geometry" />
        </mxCell>
        <mxCell id="yv-5bSZ3Bk_qHTzuzEl7-56" value="" style="endArrow=open;endFill=1;endSize=12;html=1;rounded=0;sketch=1;hachureGap=4;jiggle=2;curveFitting=1;fontFamily=Architects Daughter;fontSource=https%3A%2F%2Ffonts.googleapis.com%2Fcss%3Ffamily%3DArchitects%2BDaughter;fontSize=16;curved=1;" edge="1" parent="WIyWlLk6GJQsqaUBKTNV-1" source="yv-5bSZ3Bk_qHTzuzEl7-7" target="yv-5bSZ3Bk_qHTzuzEl7-57">
          <mxGeometry width="160" relative="1" as="geometry">
            <mxPoint x="429" y="36" as="sourcePoint" />
            <mxPoint x="783" y="36" as="targetPoint" />
            <Array as="points" />
          </mxGeometry>
        </mxCell>
        <mxCell id="yv-5bSZ3Bk_qHTzuzEl7-57" value="&lt;font style=&quot;font-size: 16px;&quot;&gt;If Teacher&lt;/font&gt;" style="text;html=1;align=center;verticalAlign=middle;resizable=0;points=[];autosize=1;strokeColor=none;fillColor=none;fontSize=20;fontFamily=Architects Daughter;" vertex="1" parent="WIyWlLk6GJQsqaUBKTNV-1">
          <mxGeometry x="524" y="22.5" width="99" height="36" as="geometry" />
        </mxCell>
        <mxCell id="yv-5bSZ3Bk_qHTzuzEl7-58" value="" style="endArrow=open;endFill=1;endSize=12;html=1;rounded=0;sketch=1;hachureGap=4;jiggle=2;curveFitting=1;fontFamily=Architects Daughter;fontSource=https%3A%2F%2Ffonts.googleapis.com%2Fcss%3Ffamily%3DArchitects%2BDaughter;fontSize=16;curved=1;exitX=1;exitY=0.911;exitDx=0;exitDy=0;exitPerimeter=0;" edge="1" parent="WIyWlLk6GJQsqaUBKTNV-1" target="yv-5bSZ3Bk_qHTzuzEl7-59">
          <mxGeometry width="160" relative="1" as="geometry">
            <mxPoint x="430" y="61.78099999999996" as="sourcePoint" />
            <mxPoint x="958.5" y="61.78099999999996" as="targetPoint" />
          </mxGeometry>
        </mxCell>
        <mxCell id="yv-5bSZ3Bk_qHTzuzEl7-59" value="&lt;font style=&quot;font-size: 16px;&quot;&gt;If Parent&lt;/font&gt;" style="text;html=1;align=center;verticalAlign=middle;resizable=0;points=[];autosize=1;strokeColor=none;fillColor=none;fontSize=20;fontFamily=Architects Daughter;" vertex="1" parent="WIyWlLk6GJQsqaUBKTNV-1">
          <mxGeometry x="787" y="44" width="87" height="36" as="geometry" />
        </mxCell>
        <mxCell id="yv-5bSZ3Bk_qHTzuzEl7-60" value="" style="endArrow=open;endFill=1;endSize=12;html=1;rounded=0;sketch=1;hachureGap=4;jiggle=2;curveFitting=1;fontFamily=Architects Daughter;fontSource=https%3A%2F%2Ffonts.googleapis.com%2Fcss%3Ffamily%3DArchitects%2BDaughter;fontSize=16;curved=1;exitX=0.994;exitY=0.222;exitDx=0;exitDy=0;exitPerimeter=0;" edge="1" parent="WIyWlLk6GJQsqaUBKTNV-1" source="yv-5bSZ3Bk_qHTzuzEl7-65" target="yv-5bSZ3Bk_qHTzuzEl7-15">
          <mxGeometry x="0.5839" y="52" width="160" relative="1" as="geometry">
            <mxPoint x="1095" y="135" as="sourcePoint" />
            <mxPoint x="850" y="99.84595524956967" as="targetPoint" />
            <Array as="points" />
            <mxPoint as="offset" />
          </mxGeometry>
        </mxCell>
        <mxCell id="yv-5bSZ3Bk_qHTzuzEl7-61" value="" style="endArrow=open;endFill=1;endSize=12;html=1;rounded=0;sketch=1;hachureGap=4;jiggle=2;curveFitting=1;fontFamily=Architects Daughter;fontSource=https%3A%2F%2Ffonts.googleapis.com%2Fcss%3Ffamily%3DArchitects%2BDaughter;fontSize=16;curved=1;entryX=0.017;entryY=0.179;entryDx=0;entryDy=0;entryPerimeter=0;" edge="1" parent="WIyWlLk6GJQsqaUBKTNV-1" source="yv-5bSZ3Bk_qHTzuzEl7-42" target="yv-5bSZ3Bk_qHTzuzEl7-63">
          <mxGeometry x="0.5839" y="52" width="160" relative="1" as="geometry">
            <mxPoint x="636" y="106" as="sourcePoint" />
            <mxPoint x="1017" y="132.29294117647055" as="targetPoint" />
            <Array as="points">
              <mxPoint x="657" y="187" />
              <mxPoint x="792" y="96" />
            </Array>
            <mxPoint as="offset" />
          </mxGeometry>
        </mxCell>
        <mxCell id="yv-5bSZ3Bk_qHTzuzEl7-62" value="" style="endArrow=open;endFill=1;endSize=12;html=1;rounded=0;sketch=1;hachureGap=4;jiggle=2;curveFitting=1;fontFamily=Architects Daughter;fontSource=https%3A%2F%2Ffonts.googleapis.com%2Fcss%3Ffamily%3DArchitects%2BDaughter;fontSize=16;curved=1;entryX=0.013;entryY=0.179;entryDx=0;entryDy=0;entryPerimeter=0;" edge="1" parent="WIyWlLk6GJQsqaUBKTNV-1" source="yv-5bSZ3Bk_qHTzuzEl7-45" target="yv-5bSZ3Bk_qHTzuzEl7-63">
          <mxGeometry width="160" relative="1" as="geometry">
            <mxPoint x="963" y="59" as="sourcePoint" />
            <mxPoint x="1017" y="127.29341317365265" as="targetPoint" />
            <Array as="points">
              <mxPoint x="816" y="307" />
              <mxPoint x="889" y="102" />
            </Array>
          </mxGeometry>
        </mxCell>
        <mxCell id="yv-5bSZ3Bk_qHTzuzEl7-63" value="&lt;font color=&quot;#ea6b66&quot;&gt;Check(CM)&lt;/font&gt;" style="swimlane;fontStyle=0;childLayout=stackLayout;horizontal=1;startSize=30;horizontalStack=0;resizeParent=1;resizeParentMax=0;resizeLast=0;collapsible=1;marginBottom=0;whiteSpace=wrap;html=1;sketch=1;hachureGap=4;jiggle=2;curveFitting=1;fontFamily=Architects Daughter;fontSource=https%3A%2F%2Ffonts.googleapis.com%2Fcss%3Ffamily%3DArchitects%2BDaughter;fontSize=20;" vertex="1" parent="WIyWlLk6GJQsqaUBKTNV-1">
          <mxGeometry x="990" y="82" width="140" height="120" as="geometry" />
        </mxCell>
        <mxCell id="yv-5bSZ3Bk_qHTzuzEl7-64" value="&lt;font style=&quot;font-size: 16px;&quot;&gt;1. class timetable&lt;/font&gt;" style="text;strokeColor=none;fillColor=none;align=left;verticalAlign=middle;spacingLeft=4;spacingRight=4;overflow=hidden;points=[[0,0.5],[1,0.5]];portConstraint=eastwest;rotatable=0;whiteSpace=wrap;html=1;fontSize=20;fontFamily=Architects Daughter;" vertex="1" parent="yv-5bSZ3Bk_qHTzuzEl7-63">
          <mxGeometry y="30" width="140" height="30" as="geometry" />
        </mxCell>
        <mxCell id="yv-5bSZ3Bk_qHTzuzEl7-65" value="&lt;font style=&quot;font-size: 14px;&quot;&gt;2. course materials&lt;/font&gt;" style="text;strokeColor=none;fillColor=none;align=left;verticalAlign=middle;spacingLeft=4;spacingRight=4;overflow=hidden;points=[[0,0.5],[1,0.5]];portConstraint=eastwest;rotatable=0;whiteSpace=wrap;html=1;fontSize=20;fontFamily=Architects Daughter;" vertex="1" parent="yv-5bSZ3Bk_qHTzuzEl7-63">
          <mxGeometry y="60" width="140" height="30" as="geometry" />
        </mxCell>
        <mxCell id="yv-5bSZ3Bk_qHTzuzEl7-66" value="&lt;font style=&quot;font-size: 16px;&quot;&gt;3. Job release...&lt;/font&gt;" style="text;strokeColor=none;fillColor=none;align=left;verticalAlign=middle;spacingLeft=4;spacingRight=4;overflow=hidden;points=[[0,0.5],[1,0.5]];portConstraint=eastwest;rotatable=0;whiteSpace=wrap;html=1;fontSize=20;fontFamily=Architects Daughter;" vertex="1" parent="yv-5bSZ3Bk_qHTzuzEl7-63">
          <mxGeometry y="90" width="140" height="30" as="geometry" />
        </mxCell>
        <mxCell id="yv-5bSZ3Bk_qHTzuzEl7-67" value="&lt;font color=&quot;#ea6b66&quot;&gt;Check(RE)&lt;/font&gt;" style="swimlane;fontStyle=0;childLayout=stackLayout;horizontal=1;startSize=30;horizontalStack=0;resizeParent=1;resizeParentMax=0;resizeLast=0;collapsible=1;marginBottom=0;whiteSpace=wrap;html=1;sketch=1;hachureGap=4;jiggle=2;curveFitting=1;fontFamily=Architects Daughter;fontSource=https%3A%2F%2Ffonts.googleapis.com%2Fcss%3Ffamily%3DArchitects%2BDaughter;fontSize=20;" vertex="1" parent="WIyWlLk6GJQsqaUBKTNV-1">
          <mxGeometry x="1175" y="182.5" width="152" height="120" as="geometry" />
        </mxCell>
        <mxCell id="yv-5bSZ3Bk_qHTzuzEl7-68" value="&lt;font style=&quot;font-size: 14px;&quot;&gt;1. Textbooks&lt;/font&gt;" style="text;strokeColor=none;fillColor=none;align=left;verticalAlign=middle;spacingLeft=4;spacingRight=4;overflow=hidden;points=[[0,0.5],[1,0.5]];portConstraint=eastwest;rotatable=0;whiteSpace=wrap;html=1;fontSize=20;fontFamily=Architects Daughter;" vertex="1" parent="yv-5bSZ3Bk_qHTzuzEl7-67">
          <mxGeometry y="30" width="152" height="30" as="geometry" />
        </mxCell>
        <mxCell id="yv-5bSZ3Bk_qHTzuzEl7-69" value="&lt;font style=&quot;font-size: 14px;&quot;&gt;2. Reference Books&lt;/font&gt;" style="text;strokeColor=none;fillColor=none;align=left;verticalAlign=middle;spacingLeft=4;spacingRight=4;overflow=hidden;points=[[0,0.5],[1,0.5]];portConstraint=eastwest;rotatable=0;whiteSpace=wrap;html=1;fontSize=20;fontFamily=Architects Daughter;" vertex="1" parent="yv-5bSZ3Bk_qHTzuzEl7-67">
          <mxGeometry y="60" width="152" height="30" as="geometry" />
        </mxCell>
        <mxCell id="yv-5bSZ3Bk_qHTzuzEl7-70" value="&lt;font style=&quot;font-size: 14px;&quot;&gt;3. Video tutorial&lt;/font&gt;" style="text;strokeColor=none;fillColor=none;align=left;verticalAlign=middle;spacingLeft=4;spacingRight=4;overflow=hidden;points=[[0,0.5],[1,0.5]];portConstraint=eastwest;rotatable=0;whiteSpace=wrap;html=1;fontSize=20;fontFamily=Architects Daughter;" vertex="1" parent="yv-5bSZ3Bk_qHTzuzEl7-67">
          <mxGeometry y="90" width="152" height="30" as="geometry" />
        </mxCell>
        <mxCell id="yv-5bSZ3Bk_qHTzuzEl7-71" value="" style="endArrow=open;endFill=1;endSize=12;html=1;rounded=0;sketch=1;hachureGap=4;jiggle=2;curveFitting=1;fontFamily=Architects Daughter;fontSource=https%3A%2F%2Ffonts.googleapis.com%2Fcss%3Ffamily%3DArchitects%2BDaughter;fontSize=16;curved=1;entryX=-0.016;entryY=0.181;entryDx=0;entryDy=0;entryPerimeter=0;" edge="1" parent="WIyWlLk6GJQsqaUBKTNV-1" source="yv-5bSZ3Bk_qHTzuzEl7-43" target="yv-5bSZ3Bk_qHTzuzEl7-67">
          <mxGeometry width="160" relative="1" as="geometry">
            <mxPoint x="1130" y="79" as="sourcePoint" />
            <mxPoint x="1290" y="79" as="targetPoint" />
            <Array as="points">
              <mxPoint x="781" y="186" />
              <mxPoint x="915" y="217" />
            </Array>
          </mxGeometry>
        </mxCell>
        <mxCell id="yv-5bSZ3Bk_qHTzuzEl7-72" value="" style="endArrow=open;endFill=1;endSize=12;html=1;rounded=0;sketch=1;hachureGap=4;jiggle=2;curveFitting=1;fontFamily=Architects Daughter;fontSource=https%3A%2F%2Ffonts.googleapis.com%2Fcss%3Ffamily%3DArchitects%2BDaughter;fontSize=16;curved=1;exitX=1;exitY=0.5;exitDx=0;exitDy=0;" edge="1" parent="WIyWlLk6GJQsqaUBKTNV-1" source="yv-5bSZ3Bk_qHTzuzEl7-69" target="yv-5bSZ3Bk_qHTzuzEl7-17">
          <mxGeometry width="160" relative="1" as="geometry">
            <mxPoint x="1210" y="197" as="sourcePoint" />
            <mxPoint x="1370" y="197" as="targetPoint" />
            <Array as="points">
              <mxPoint x="1340" y="237" />
            </Array>
          </mxGeometry>
        </mxCell>
        <mxCell id="yv-5bSZ3Bk_qHTzuzEl7-73" value="&lt;font color=&quot;#ea6b66&quot;&gt;Check(GR)&lt;/font&gt;" style="swimlane;fontStyle=0;childLayout=stackLayout;horizontal=1;startSize=30;horizontalStack=0;resizeParent=1;resizeParentMax=0;resizeLast=0;collapsible=1;marginBottom=0;whiteSpace=wrap;html=1;sketch=1;hachureGap=4;jiggle=2;curveFitting=1;fontFamily=Architects Daughter;fontSource=https%3A%2F%2Ffonts.googleapis.com%2Fcss%3Ffamily%3DArchitects%2BDaughter;fontSize=20;" vertex="1" parent="WIyWlLk6GJQsqaUBKTNV-1">
          <mxGeometry x="1396" y="265" width="140" height="118" as="geometry" />
        </mxCell>
        <mxCell id="yv-5bSZ3Bk_qHTzuzEl7-74" value="&lt;font style=&quot;font-size: 16px;&quot;&gt;1. Student grades&lt;/font&gt;" style="text;strokeColor=none;fillColor=none;align=left;verticalAlign=middle;spacingLeft=4;spacingRight=4;overflow=hidden;points=[[0,0.5],[1,0.5]];portConstraint=eastwest;rotatable=0;whiteSpace=wrap;html=1;fontSize=20;fontFamily=Architects Daughter;" vertex="1" parent="yv-5bSZ3Bk_qHTzuzEl7-73">
          <mxGeometry y="30" width="140" height="30" as="geometry" />
        </mxCell>
        <mxCell id="yv-5bSZ3Bk_qHTzuzEl7-75" value="&lt;font style=&quot;font-size: 16px;&quot;&gt;2. Academic progress&lt;/font&gt;" style="text;strokeColor=none;fillColor=none;align=left;verticalAlign=middle;spacingLeft=4;spacingRight=4;overflow=hidden;points=[[0,0.5],[1,0.5]];portConstraint=eastwest;rotatable=0;whiteSpace=wrap;html=1;fontSize=20;fontFamily=Architects Daughter;" vertex="1" parent="yv-5bSZ3Bk_qHTzuzEl7-73">
          <mxGeometry y="60" width="140" height="58" as="geometry" />
        </mxCell>
        <mxCell id="yv-5bSZ3Bk_qHTzuzEl7-76" value="" style="endArrow=open;endFill=1;endSize=12;html=1;rounded=0;sketch=1;hachureGap=4;jiggle=2;curveFitting=1;fontFamily=Architects Daughter;fontSource=https%3A%2F%2Ffonts.googleapis.com%2Fcss%3Ffamily%3DArchitects%2BDaughter;fontSize=16;curved=1;entryX=0.007;entryY=0.171;entryDx=0;entryDy=0;entryPerimeter=0;" edge="1" parent="WIyWlLk6GJQsqaUBKTNV-1" source="yv-5bSZ3Bk_qHTzuzEl7-42" target="yv-5bSZ3Bk_qHTzuzEl7-73">
          <mxGeometry width="160" relative="1" as="geometry">
            <mxPoint x="1050" y="184" as="sourcePoint" />
            <mxPoint x="1210" y="184" as="targetPoint" />
            <Array as="points">
              <mxPoint x="827" y="190" />
              <mxPoint x="1113" y="253" />
              <mxPoint x="1152" y="344" />
            </Array>
          </mxGeometry>
        </mxCell>
        <mxCell id="yv-5bSZ3Bk_qHTzuzEl7-77" value="" style="endArrow=open;endFill=1;endSize=12;html=1;rounded=0;sketch=1;hachureGap=4;jiggle=2;curveFitting=1;fontFamily=Architects Daughter;fontSource=https%3A%2F%2Ffonts.googleapis.com%2Fcss%3Ffamily%3DArchitects%2BDaughter;fontSize=16;curved=1;entryX=0;entryY=0.25;entryDx=0;entryDy=0;" edge="1" parent="WIyWlLk6GJQsqaUBKTNV-1" source="yv-5bSZ3Bk_qHTzuzEl7-46" target="yv-5bSZ3Bk_qHTzuzEl7-73">
          <mxGeometry width="160" relative="1" as="geometry">
            <mxPoint x="1050" y="184" as="sourcePoint" />
            <mxPoint x="1210" y="184" as="targetPoint" />
            <Array as="points">
              <mxPoint x="1176" y="345" />
            </Array>
          </mxGeometry>
        </mxCell>
        <mxCell id="yv-5bSZ3Bk_qHTzuzEl7-78" value="" style="endArrow=open;endFill=1;endSize=12;html=1;rounded=0;sketch=1;hachureGap=4;jiggle=2;curveFitting=1;fontFamily=Architects Daughter;fontSource=https%3A%2F%2Ffonts.googleapis.com%2Fcss%3Ffamily%3DArchitects%2BDaughter;fontSize=16;curved=1;exitX=1.022;exitY=0.146;exitDx=0;exitDy=0;exitPerimeter=0;" edge="1" parent="WIyWlLk6GJQsqaUBKTNV-1" source="yv-5bSZ3Bk_qHTzuzEl7-73" target="yv-5bSZ3Bk_qHTzuzEl7-19">
          <mxGeometry width="160" relative="1" as="geometry">
            <mxPoint x="1050" y="184" as="sourcePoint" />
            <mxPoint x="1210" y="184" as="targetPoint" />
            <Array as="points">
              <mxPoint x="1539" y="190" />
            </Array>
          </mxGeometry>
        </mxCell>
        <mxCell id="yv-5bSZ3Bk_qHTzuzEl7-79" value="&lt;font color=&quot;#ea6b66&quot;&gt;Check(AM)&lt;/font&gt;" style="swimlane;fontStyle=0;childLayout=stackLayout;horizontal=1;startSize=30;horizontalStack=0;resizeParent=1;resizeParentMax=0;resizeLast=0;collapsible=1;marginBottom=0;whiteSpace=wrap;html=1;sketch=1;hachureGap=4;jiggle=2;curveFitting=1;fontFamily=Architects Daughter;fontSource=https%3A%2F%2Ffonts.googleapis.com%2Fcss%3Ffamily%3DArchitects%2BDaughter;fontSize=20;" vertex="1" parent="WIyWlLk6GJQsqaUBKTNV-1">
          <mxGeometry x="1603" y="367.5" width="140" height="120" as="geometry" />
        </mxCell>
        <mxCell id="yv-5bSZ3Bk_qHTzuzEl7-80" value="&lt;font style=&quot;font-size: 19px;&quot;&gt;1. Leave&lt;/font&gt;" style="text;strokeColor=none;fillColor=none;align=left;verticalAlign=middle;spacingLeft=4;spacingRight=4;overflow=hidden;points=[[0,0.5],[1,0.5]];portConstraint=eastwest;rotatable=0;whiteSpace=wrap;html=1;fontSize=20;fontFamily=Architects Daughter;" vertex="1" parent="yv-5bSZ3Bk_qHTzuzEl7-79">
          <mxGeometry y="30" width="140" height="30" as="geometry" />
        </mxCell>
        <mxCell id="yv-5bSZ3Bk_qHTzuzEl7-81" value="&lt;font style=&quot;font-size: 19px;&quot;&gt;2. Late&lt;/font&gt;" style="text;strokeColor=none;fillColor=none;align=left;verticalAlign=middle;spacingLeft=4;spacingRight=4;overflow=hidden;points=[[0,0.5],[1,0.5]];portConstraint=eastwest;rotatable=0;whiteSpace=wrap;html=1;fontSize=20;fontFamily=Architects Daughter;" vertex="1" parent="yv-5bSZ3Bk_qHTzuzEl7-79">
          <mxGeometry y="60" width="140" height="30" as="geometry" />
        </mxCell>
        <mxCell id="yv-5bSZ3Bk_qHTzuzEl7-82" value="&lt;font style=&quot;font-size: 19px;&quot;&gt;3. Early Leave&lt;/font&gt;" style="text;strokeColor=none;fillColor=none;align=left;verticalAlign=middle;spacingLeft=4;spacingRight=4;overflow=hidden;points=[[0,0.5],[1,0.5]];portConstraint=eastwest;rotatable=0;whiteSpace=wrap;html=1;fontSize=20;fontFamily=Architects Daughter;" vertex="1" parent="yv-5bSZ3Bk_qHTzuzEl7-79">
          <mxGeometry y="90" width="140" height="30" as="geometry" />
        </mxCell>
        <mxCell id="yv-5bSZ3Bk_qHTzuzEl7-83" value="&lt;font color=&quot;#ea6b66&quot;&gt;Check(NA)&lt;/font&gt;" style="swimlane;fontStyle=0;childLayout=stackLayout;horizontal=1;startSize=30;horizontalStack=0;resizeParent=1;resizeParentMax=0;resizeLast=0;collapsible=1;marginBottom=0;whiteSpace=wrap;html=1;sketch=1;hachureGap=4;jiggle=2;curveFitting=1;fontFamily=Architects Daughter;fontSource=https%3A%2F%2Ffonts.googleapis.com%2Fcss%3Ffamily%3DArchitects%2BDaughter;fontSize=20;" vertex="1" parent="WIyWlLk6GJQsqaUBKTNV-1">
          <mxGeometry x="1825" y="443" width="140" height="90" as="geometry" />
        </mxCell>
        <mxCell id="yv-5bSZ3Bk_qHTzuzEl7-84" value="&lt;font style=&quot;font-size: 15px;&quot;&gt;1. Campus activities&lt;/font&gt;" style="text;strokeColor=none;fillColor=none;align=left;verticalAlign=middle;spacingLeft=4;spacingRight=4;overflow=hidden;points=[[0,0.5],[1,0.5]];portConstraint=eastwest;rotatable=0;whiteSpace=wrap;html=1;fontSize=20;fontFamily=Architects Daughter;" vertex="1" parent="yv-5bSZ3Bk_qHTzuzEl7-83">
          <mxGeometry y="30" width="140" height="30" as="geometry" />
        </mxCell>
        <mxCell id="yv-5bSZ3Bk_qHTzuzEl7-85" value="&lt;font style=&quot;font-size: 14px;&quot;&gt;2. Important Notice&lt;/font&gt;" style="text;strokeColor=none;fillColor=none;align=left;verticalAlign=middle;spacingLeft=4;spacingRight=4;overflow=hidden;points=[[0,0.5],[1,0.5]];portConstraint=eastwest;rotatable=0;whiteSpace=wrap;html=1;fontSize=20;fontFamily=Architects Daughter;" vertex="1" parent="yv-5bSZ3Bk_qHTzuzEl7-83">
          <mxGeometry y="60" width="140" height="30" as="geometry" />
        </mxCell>
        <mxCell id="yv-5bSZ3Bk_qHTzuzEl7-86" style="edgeStyle=none;curved=1;rounded=0;sketch=1;hachureGap=4;jiggle=2;curveFitting=1;orthogonalLoop=1;jettySize=auto;html=1;exitX=0.5;exitY=0;exitDx=0;exitDy=0;fontFamily=Architects Daughter;fontSource=https%3A%2F%2Ffonts.googleapis.com%2Fcss%3Ffamily%3DArchitects%2BDaughter;fontSize=16;startSize=8;endSize=8;" edge="1" parent="WIyWlLk6GJQsqaUBKTNV-1" source="yv-5bSZ3Bk_qHTzuzEl7-83" target="yv-5bSZ3Bk_qHTzuzEl7-83">
          <mxGeometry relative="1" as="geometry" />
        </mxCell>
        <mxCell id="yv-5bSZ3Bk_qHTzuzEl7-87" value="&lt;font color=&quot;#ea6b66&quot;&gt;Check(CN)&lt;/font&gt;" style="swimlane;fontStyle=0;childLayout=stackLayout;horizontal=1;startSize=30;horizontalStack=0;resizeParent=1;resizeParentMax=0;resizeLast=0;collapsible=1;marginBottom=0;whiteSpace=wrap;html=1;sketch=1;hachureGap=4;jiggle=2;curveFitting=1;fontFamily=Architects Daughter;fontSource=https%3A%2F%2Ffonts.googleapis.com%2Fcss%3Ffamily%3DArchitects%2BDaughter;fontSize=20;" vertex="1" parent="WIyWlLk6GJQsqaUBKTNV-1">
          <mxGeometry x="2034" y="506" width="140" height="114" as="geometry" />
        </mxCell>
        <mxCell id="yv-5bSZ3Bk_qHTzuzEl7-88" value="&lt;font style=&quot;font-size: 18px;&quot;&gt;1. Campus Map&lt;/font&gt;" style="text;strokeColor=none;fillColor=none;align=left;verticalAlign=middle;spacingLeft=4;spacingRight=4;overflow=hidden;points=[[0,0.5],[1,0.5]];portConstraint=eastwest;rotatable=0;whiteSpace=wrap;html=1;fontSize=20;fontFamily=Architects Daughter;" vertex="1" parent="yv-5bSZ3Bk_qHTzuzEl7-87">
          <mxGeometry y="30" width="140" height="30" as="geometry" />
        </mxCell>
        <mxCell id="yv-5bSZ3Bk_qHTzuzEl7-89" value="&lt;font style=&quot;font-size: 19px;&quot;&gt;2. Navigation function&lt;/font&gt;" style="text;strokeColor=none;fillColor=none;align=left;verticalAlign=middle;spacingLeft=4;spacingRight=4;overflow=hidden;points=[[0,0.5],[1,0.5]];portConstraint=eastwest;rotatable=0;whiteSpace=wrap;html=1;fontSize=20;fontFamily=Architects Daughter;" vertex="1" parent="yv-5bSZ3Bk_qHTzuzEl7-87">
          <mxGeometry y="60" width="140" height="54" as="geometry" />
        </mxCell>
        <mxCell id="yv-5bSZ3Bk_qHTzuzEl7-90" value="&lt;font color=&quot;#ea6b66&quot;&gt;Check(SI)&lt;/font&gt;" style="swimlane;fontStyle=0;childLayout=stackLayout;horizontal=1;startSize=30;horizontalStack=0;resizeParent=1;resizeParentMax=0;resizeLast=0;collapsible=1;marginBottom=0;whiteSpace=wrap;html=1;sketch=1;hachureGap=4;jiggle=2;curveFitting=1;fontFamily=Architects Daughter;fontSource=https%3A%2F%2Ffonts.googleapis.com%2Fcss%3Ffamily%3DArchitects%2BDaughter;fontSize=20;" vertex="1" parent="WIyWlLk6GJQsqaUBKTNV-1">
          <mxGeometry x="2226" y="584" width="140" height="120" as="geometry" />
        </mxCell>
        <mxCell id="yv-5bSZ3Bk_qHTzuzEl7-91" value="&lt;font style=&quot;font-size: 15px;&quot;&gt;1. Post updates&lt;/font&gt;" style="text;strokeColor=none;fillColor=none;align=left;verticalAlign=middle;spacingLeft=4;spacingRight=4;overflow=hidden;points=[[0,0.5],[1,0.5]];portConstraint=eastwest;rotatable=0;whiteSpace=wrap;html=1;fontSize=20;fontFamily=Architects Daughter;" vertex="1" parent="yv-5bSZ3Bk_qHTzuzEl7-90">
          <mxGeometry y="30" width="140" height="30" as="geometry" />
        </mxCell>
        <mxCell id="yv-5bSZ3Bk_qHTzuzEl7-92" value="&lt;font style=&quot;font-size: 15px;&quot;&gt;2. Post comments&lt;/font&gt;" style="text;strokeColor=none;fillColor=none;align=left;verticalAlign=middle;spacingLeft=4;spacingRight=4;overflow=hidden;points=[[0,0.5],[1,0.5]];portConstraint=eastwest;rotatable=0;whiteSpace=wrap;html=1;fontSize=20;fontFamily=Architects Daughter;" vertex="1" parent="yv-5bSZ3Bk_qHTzuzEl7-90">
          <mxGeometry y="60" width="140" height="30" as="geometry" />
        </mxCell>
        <mxCell id="yv-5bSZ3Bk_qHTzuzEl7-93" value="&lt;font style=&quot;font-size: 15px;&quot;&gt;3. Like&lt;/font&gt;" style="text;strokeColor=none;fillColor=none;align=left;verticalAlign=middle;spacingLeft=4;spacingRight=4;overflow=hidden;points=[[0,0.5],[1,0.5]];portConstraint=eastwest;rotatable=0;whiteSpace=wrap;html=1;fontSize=20;fontFamily=Architects Daughter;" vertex="1" parent="yv-5bSZ3Bk_qHTzuzEl7-90">
          <mxGeometry y="90" width="140" height="30" as="geometry" />
        </mxCell>
        <mxCell id="yv-5bSZ3Bk_qHTzuzEl7-94" value="&lt;font color=&quot;#ea6b66&quot;&gt;Check(CR)&lt;/font&gt;" style="swimlane;fontStyle=0;childLayout=stackLayout;horizontal=1;startSize=30;horizontalStack=0;resizeParent=1;resizeParentMax=0;resizeLast=0;collapsible=1;marginBottom=0;whiteSpace=wrap;html=1;sketch=1;hachureGap=4;jiggle=2;curveFitting=1;fontFamily=Architects Daughter;fontSource=https%3A%2F%2Ffonts.googleapis.com%2Fcss%3Ffamily%3DArchitects%2BDaughter;fontSize=20;" vertex="1" parent="WIyWlLk6GJQsqaUBKTNV-1">
          <mxGeometry x="2435" y="689" width="140" height="84" as="geometry" />
        </mxCell>
        <mxCell id="yv-5bSZ3Bk_qHTzuzEl7-95" value="&lt;font style=&quot;font-size: 18px;&quot;&gt;1. Canteen reservation&lt;/font&gt;" style="text;strokeColor=none;fillColor=none;align=left;verticalAlign=middle;spacingLeft=4;spacingRight=4;overflow=hidden;points=[[0,0.5],[1,0.5]];portConstraint=eastwest;rotatable=0;whiteSpace=wrap;html=1;fontSize=20;fontFamily=Architects Daughter;" vertex="1" parent="yv-5bSZ3Bk_qHTzuzEl7-94">
          <mxGeometry y="30" width="140" height="54" as="geometry" />
        </mxCell>
        <mxCell id="yv-5bSZ3Bk_qHTzuzEl7-96" value="" style="endArrow=open;endFill=1;endSize=12;html=1;rounded=0;sketch=1;hachureGap=4;jiggle=2;curveFitting=1;fontFamily=Architects Daughter;fontSource=https%3A%2F%2Ffonts.googleapis.com%2Fcss%3Ffamily%3DArchitects%2BDaughter;fontSize=16;curved=1;entryX=0.019;entryY=0.19;entryDx=0;entryDy=0;entryPerimeter=0;" edge="1" parent="WIyWlLk6GJQsqaUBKTNV-1" source="yv-5bSZ3Bk_qHTzuzEl7-42" target="yv-5bSZ3Bk_qHTzuzEl7-79">
          <mxGeometry width="160" relative="1" as="geometry">
            <mxPoint x="943" y="351" as="sourcePoint" />
            <mxPoint x="1103" y="351" as="targetPoint" />
          </mxGeometry>
        </mxCell>
        <mxCell id="yv-5bSZ3Bk_qHTzuzEl7-97" value="" style="endArrow=open;endFill=1;endSize=12;html=1;rounded=0;sketch=1;hachureGap=4;jiggle=2;curveFitting=1;fontFamily=Architects Daughter;fontSource=https%3A%2F%2Ffonts.googleapis.com%2Fcss%3Ffamily%3DArchitects%2BDaughter;fontSize=16;curved=1;entryX=0;entryY=0.5;entryDx=0;entryDy=0;" edge="1" parent="WIyWlLk6GJQsqaUBKTNV-1">
          <mxGeometry width="160" relative="1" as="geometry">
            <mxPoint x="788" y="415" as="sourcePoint" />
            <mxPoint x="1603" y="415" as="targetPoint" />
          </mxGeometry>
        </mxCell>
        <mxCell id="yv-5bSZ3Bk_qHTzuzEl7-98" value="" style="endArrow=open;endFill=1;endSize=12;html=1;rounded=0;sketch=1;hachureGap=4;jiggle=2;curveFitting=1;fontFamily=Architects Daughter;fontSource=https%3A%2F%2Ffonts.googleapis.com%2Fcss%3Ffamily%3DArchitects%2BDaughter;fontSize=16;curved=1;entryX=0.023;entryY=1.05;entryDx=0;entryDy=0;entryPerimeter=0;" edge="1" parent="WIyWlLk6GJQsqaUBKTNV-1" source="yv-5bSZ3Bk_qHTzuzEl7-47">
          <mxGeometry width="160" relative="1" as="geometry">
            <mxPoint x="956" y="431" as="sourcePoint" />
            <mxPoint x="1601.2199999999998" y="431" as="targetPoint" />
          </mxGeometry>
        </mxCell>
        <mxCell id="yv-5bSZ3Bk_qHTzuzEl7-99" value="" style="endArrow=open;endFill=1;endSize=12;html=1;rounded=0;sketch=1;hachureGap=4;jiggle=2;curveFitting=1;fontFamily=Architects Daughter;fontSource=https%3A%2F%2Ffonts.googleapis.com%2Fcss%3Ffamily%3DArchitects%2BDaughter;fontSize=16;curved=1;entryX=0;entryY=0.5;entryDx=0;entryDy=0;" edge="1" parent="WIyWlLk6GJQsqaUBKTNV-1" source="yv-5bSZ3Bk_qHTzuzEl7-43" target="yv-5bSZ3Bk_qHTzuzEl7-84">
          <mxGeometry width="160" relative="1" as="geometry">
            <mxPoint x="1200" y="271" as="sourcePoint" />
            <mxPoint x="1360" y="271" as="targetPoint" />
          </mxGeometry>
        </mxCell>
        <mxCell id="yv-5bSZ3Bk_qHTzuzEl7-100" value="" style="endArrow=open;endFill=1;endSize=12;html=1;rounded=0;sketch=1;hachureGap=4;jiggle=2;curveFitting=1;fontFamily=Architects Daughter;fontSource=https%3A%2F%2Ffonts.googleapis.com%2Fcss%3Ffamily%3DArchitects%2BDaughter;fontSize=16;curved=1;entryX=0.012;entryY=-0.2;entryDx=0;entryDy=0;entryPerimeter=0;" edge="1" parent="WIyWlLk6GJQsqaUBKTNV-1">
          <mxGeometry width="160" relative="1" as="geometry">
            <mxPoint x="787" y="507" as="sourcePoint" />
            <mxPoint x="1825.6800000000003" y="507" as="targetPoint" />
          </mxGeometry>
        </mxCell>
        <mxCell id="yv-5bSZ3Bk_qHTzuzEl7-101" value="" style="endArrow=open;endFill=1;endSize=12;html=1;rounded=0;sketch=1;hachureGap=4;jiggle=2;curveFitting=1;fontFamily=Architects Daughter;fontSource=https%3A%2F%2Ffonts.googleapis.com%2Fcss%3Ffamily%3DArchitects%2BDaughter;fontSize=16;curved=1;entryX=0;entryY=0.5;entryDx=0;entryDy=0;" edge="1" parent="WIyWlLk6GJQsqaUBKTNV-1">
          <mxGeometry width="160" relative="1" as="geometry">
            <mxPoint x="957.1666666666665" y="524" as="sourcePoint" />
            <mxPoint x="1825" y="524" as="targetPoint" />
          </mxGeometry>
        </mxCell>
        <mxCell id="yv-5bSZ3Bk_qHTzuzEl7-102" value="" style="endArrow=open;endFill=1;endSize=12;html=1;rounded=0;sketch=1;hachureGap=4;jiggle=2;curveFitting=1;fontFamily=Architects Daughter;fontSource=https%3A%2F%2Ffonts.googleapis.com%2Fcss%3Ffamily%3DArchitects%2BDaughter;fontSize=16;curved=1;entryX=0;entryY=0.5;entryDx=0;entryDy=0;" edge="1" parent="WIyWlLk6GJQsqaUBKTNV-1">
          <mxGeometry width="160" relative="1" as="geometry">
            <mxPoint x="643" y="572" as="sourcePoint" />
            <mxPoint x="2040.9999999999995" y="572" as="targetPoint" />
          </mxGeometry>
        </mxCell>
        <mxCell id="yv-5bSZ3Bk_qHTzuzEl7-103" value="" style="endArrow=open;endFill=1;endSize=12;html=1;rounded=0;sketch=1;hachureGap=4;jiggle=2;curveFitting=1;fontFamily=Architects Daughter;fontSource=https%3A%2F%2Ffonts.googleapis.com%2Fcss%3Ffamily%3DArchitects%2BDaughter;fontSize=16;curved=1;entryX=0;entryY=0.5;entryDx=0;entryDy=0;" edge="1" parent="WIyWlLk6GJQsqaUBKTNV-1" source="yv-5bSZ3Bk_qHTzuzEl7-45" target="yv-5bSZ3Bk_qHTzuzEl7-89">
          <mxGeometry width="160" relative="1" as="geometry">
            <mxPoint x="1283" y="450" as="sourcePoint" />
            <mxPoint x="1443" y="450" as="targetPoint" />
          </mxGeometry>
        </mxCell>
        <mxCell id="yv-5bSZ3Bk_qHTzuzEl7-104" value="" style="endArrow=open;endFill=1;endSize=12;html=1;rounded=0;sketch=1;hachureGap=4;jiggle=2;curveFitting=1;fontFamily=Architects Daughter;fontSource=https%3A%2F%2Ffonts.googleapis.com%2Fcss%3Ffamily%3DArchitects%2BDaughter;fontSize=16;curved=1;entryX=-0.016;entryY=0.903;entryDx=0;entryDy=0;entryPerimeter=0;" edge="1" parent="WIyWlLk6GJQsqaUBKTNV-1" source="yv-5bSZ3Bk_qHTzuzEl7-47" target="yv-5bSZ3Bk_qHTzuzEl7-89">
          <mxGeometry width="160" relative="1" as="geometry">
            <mxPoint x="1283" y="450" as="sourcePoint" />
            <mxPoint x="1443" y="450" as="targetPoint" />
          </mxGeometry>
        </mxCell>
        <mxCell id="yv-5bSZ3Bk_qHTzuzEl7-105" value="" style="endArrow=open;endFill=1;endSize=12;html=1;rounded=0;sketch=1;hachureGap=4;jiggle=2;curveFitting=1;fontFamily=Architects Daughter;fontSource=https%3A%2F%2Ffonts.googleapis.com%2Fcss%3Ffamily%3DArchitects%2BDaughter;fontSize=16;curved=1;entryX=0;entryY=0.5;entryDx=0;entryDy=0;" edge="1" parent="WIyWlLk6GJQsqaUBKTNV-1">
          <mxGeometry width="160" relative="1" as="geometry">
            <mxPoint x="639" y="674.33" as="sourcePoint" />
            <mxPoint x="2229" y="674.33" as="targetPoint" />
          </mxGeometry>
        </mxCell>
        <mxCell id="yv-5bSZ3Bk_qHTzuzEl7-106" value="" style="endArrow=open;endFill=1;endSize=12;html=1;rounded=0;sketch=1;hachureGap=4;jiggle=2;curveFitting=1;fontFamily=Architects Daughter;fontSource=https%3A%2F%2Ffonts.googleapis.com%2Fcss%3Ffamily%3DArchitects%2BDaughter;fontSize=16;curved=1;entryX=0;entryY=0.5;entryDx=0;entryDy=0;" edge="1" parent="WIyWlLk6GJQsqaUBKTNV-1" source="yv-5bSZ3Bk_qHTzuzEl7-45" target="yv-5bSZ3Bk_qHTzuzEl7-93">
          <mxGeometry width="160" relative="1" as="geometry">
            <mxPoint x="1380" y="455" as="sourcePoint" />
            <mxPoint x="1540" y="455" as="targetPoint" />
          </mxGeometry>
        </mxCell>
        <mxCell id="yv-5bSZ3Bk_qHTzuzEl7-107" value="" style="endArrow=open;endFill=1;endSize=12;html=1;rounded=0;sketch=1;hachureGap=4;jiggle=2;curveFitting=1;fontFamily=Architects Daughter;fontSource=https%3A%2F%2Ffonts.googleapis.com%2Fcss%3Ffamily%3DArchitects%2BDaughter;fontSize=16;curved=1;entryX=-0.016;entryY=0.796;entryDx=0;entryDy=0;entryPerimeter=0;" edge="1" parent="WIyWlLk6GJQsqaUBKTNV-1" source="yv-5bSZ3Bk_qHTzuzEl7-43" target="yv-5bSZ3Bk_qHTzuzEl7-95">
          <mxGeometry width="160" relative="1" as="geometry">
            <mxPoint x="1563" y="470" as="sourcePoint" />
            <mxPoint x="1723" y="470" as="targetPoint" />
          </mxGeometry>
        </mxCell>
        <mxCell id="yv-5bSZ3Bk_qHTzuzEl7-108" value="" style="endArrow=open;endFill=1;endSize=12;html=1;rounded=0;sketch=1;hachureGap=4;jiggle=2;curveFitting=1;fontFamily=Architects Daughter;fontSource=https%3A%2F%2Ffonts.googleapis.com%2Fcss%3Ffamily%3DArchitects%2BDaughter;fontSize=16;curved=1;exitX=1.014;exitY=0.255;exitDx=0;exitDy=0;exitPerimeter=0;" edge="1" parent="WIyWlLk6GJQsqaUBKTNV-1" source="yv-5bSZ3Bk_qHTzuzEl7-81" target="yv-5bSZ3Bk_qHTzuzEl7-21">
          <mxGeometry width="160" relative="1" as="geometry">
            <mxPoint x="1699" y="439" as="sourcePoint" />
            <mxPoint x="1859" y="439" as="targetPoint" />
            <Array as="points">
              <mxPoint x="1761" y="384" />
            </Array>
          </mxGeometry>
        </mxCell>
        <mxCell id="yv-5bSZ3Bk_qHTzuzEl7-109" value="" style="endArrow=open;endFill=1;endSize=12;html=1;rounded=0;sketch=1;hachureGap=4;jiggle=2;curveFitting=1;fontFamily=Architects Daughter;fontSource=https%3A%2F%2Ffonts.googleapis.com%2Fcss%3Ffamily%3DArchitects%2BDaughter;fontSize=16;curved=1;exitX=1.013;exitY=0.915;exitDx=0;exitDy=0;exitPerimeter=0;" edge="1" parent="WIyWlLk6GJQsqaUBKTNV-1" source="yv-5bSZ3Bk_qHTzuzEl7-84" target="yv-5bSZ3Bk_qHTzuzEl7-23">
          <mxGeometry width="160" relative="1" as="geometry">
            <mxPoint x="1876" y="531" as="sourcePoint" />
            <mxPoint x="2036" y="531" as="targetPoint" />
            <Array as="points">
              <mxPoint x="1976" y="467" />
            </Array>
          </mxGeometry>
        </mxCell>
        <mxCell id="yv-5bSZ3Bk_qHTzuzEl7-110" value="" style="endArrow=open;endFill=1;endSize=12;html=1;rounded=0;sketch=1;hachureGap=4;jiggle=2;curveFitting=1;fontFamily=Architects Daughter;fontSource=https%3A%2F%2Ffonts.googleapis.com%2Fcss%3Ffamily%3DArchitects%2BDaughter;fontSize=16;curved=1;exitX=0.995;exitY=0.22;exitDx=0;exitDy=0;exitPerimeter=0;" edge="1" parent="WIyWlLk6GJQsqaUBKTNV-1" source="yv-5bSZ3Bk_qHTzuzEl7-89" target="yv-5bSZ3Bk_qHTzuzEl7-25">
          <mxGeometry width="160" relative="1" as="geometry">
            <mxPoint x="2097" y="599" as="sourcePoint" />
            <mxPoint x="2257" y="599" as="targetPoint" />
            <Array as="points">
              <mxPoint x="2182" y="536" />
            </Array>
          </mxGeometry>
        </mxCell>
        <mxCell id="yv-5bSZ3Bk_qHTzuzEl7-111" value="" style="endArrow=open;endFill=1;endSize=12;html=1;rounded=0;sketch=1;hachureGap=4;jiggle=2;curveFitting=1;fontFamily=Architects Daughter;fontSource=https%3A%2F%2Ffonts.googleapis.com%2Fcss%3Ffamily%3DArchitects%2BDaughter;fontSize=16;curved=1;exitX=1.018;exitY=0.804;exitDx=0;exitDy=0;exitPerimeter=0;" edge="1" parent="WIyWlLk6GJQsqaUBKTNV-1" source="yv-5bSZ3Bk_qHTzuzEl7-91" target="yv-5bSZ3Bk_qHTzuzEl7-27">
          <mxGeometry width="160" relative="1" as="geometry">
            <mxPoint x="2277" y="658" as="sourcePoint" />
            <mxPoint x="2437" y="658" as="targetPoint" />
            <Array as="points">
              <mxPoint x="2383" y="607" />
            </Array>
          </mxGeometry>
        </mxCell>
        <mxCell id="yv-5bSZ3Bk_qHTzuzEl7-112" value="" style="endArrow=open;endFill=1;endSize=12;html=1;rounded=0;sketch=1;hachureGap=4;jiggle=2;curveFitting=1;fontFamily=Architects Daughter;fontSource=https%3A%2F%2Ffonts.googleapis.com%2Fcss%3Ffamily%3DArchitects%2BDaughter;fontSize=16;curved=1;exitX=1.014;exitY=0.379;exitDx=0;exitDy=0;exitPerimeter=0;" edge="1" parent="WIyWlLk6GJQsqaUBKTNV-1" source="yv-5bSZ3Bk_qHTzuzEl7-95" target="yv-5bSZ3Bk_qHTzuzEl7-29">
          <mxGeometry width="160" relative="1" as="geometry">
            <mxPoint x="2471" y="815" as="sourcePoint" />
            <mxPoint x="2631" y="815" as="targetPoint" />
            <Array as="points">
              <mxPoint x="2585" y="713" />
            </Array>
          </mxGeometry>
        </mxCell>
      </root>
    </mxGraphModel>
  </diagram>
</mxfile>
